<svg width="48" height="48" viewBox="0 0 48 48" fill="none" xmlns="http://www.w3.org/2000/svg">
<circle cx="24" cy="24" r="24" fill="#2775CA"/>
<path d="M20.0889 38.2592C20.0889 38.7809 19.7333 38.9548 19.2 38.9548C12.6222 36.8681 8 30.9557 8 24C8 17.0443 12.6222 11.1319 19.2 9.04523C19.7333 8.87134 20.0889 9.21913 20.0889 9.74081V10.9581C20.0889 11.3058 19.9111 11.6536 19.5556 11.8275C14.4 13.7403 10.8444 18.4354 10.8444 24C10.8444 29.5646 14.5778 34.4336 19.5556 36.1725C19.9111 36.3464 20.0889 36.6942 20.0889 37.0419V38.2592Z" fill="white"/>
<path d="M25.4218 33.9118C25.4218 34.2596 25.0662 34.6074 24.7107 34.6074H23.2885C22.9329 34.6074 22.5773 34.2596 22.5773 33.9118V31.8251C19.7329 31.4773 18.3107 29.9123 17.7773 27.6517C17.7773 27.3039 17.9551 26.9561 18.3107 26.9561H19.9107C20.2662 26.9561 20.444 27.13 20.6218 27.4778C20.9773 28.6951 21.6885 29.7384 23.9996 29.7384C25.7773 29.7384 27.0218 28.869 27.0218 27.4778C27.0218 26.0867 26.3107 25.565 23.8218 25.2172C20.0885 24.6955 18.3107 23.6522 18.3107 20.696C18.3107 18.4354 20.0885 16.6965 22.5773 16.3487V14.262C22.5773 13.9142 22.9329 13.5664 23.2885 13.5664H24.7107C25.0662 13.5664 25.4218 13.9142 25.4218 14.262V16.3487C27.5551 16.6965 28.9773 17.9137 29.3329 19.8265C29.3329 20.1743 29.1551 20.5221 28.7996 20.5221H27.3773C27.0218 20.5221 26.844 20.3482 26.6662 20.0004C26.3107 18.7832 25.4218 18.2615 23.8218 18.2615C22.044 18.2615 21.1551 19.131 21.1551 20.3482C21.1551 21.5655 21.6885 22.261 24.3551 22.6088C28.0885 23.1305 29.8662 24.1739 29.8662 27.13C29.8662 29.3906 28.0885 31.3035 25.4218 31.8251V33.9118Z" fill="white"/>
<path d="M28.799 38.9547C28.2657 39.1286 27.9102 38.7808 27.9102 38.2591V37.0419C27.9102 36.6941 28.0879 36.3463 28.4435 36.1724C33.599 34.2596 37.1546 29.5645 37.1546 23.9999C37.1546 18.4354 33.4213 13.5664 28.4435 11.8274C28.0879 11.6536 27.9102 11.3058 27.9102 10.958V9.74074C27.9102 9.21906 28.2657 9.04517 28.799 9.04517C35.199 11.1319 39.999 17.0442 39.999 23.9999C39.999 30.9556 35.3768 36.868 28.799 38.9547Z" fill="white"/>
</svg>
